<svg width="256" height="256" viewBox="0 0 256 256" xmlns="http://www.w3.org/2000/svg">
  <rect width="256" height="256" rx="40" fill="#2563EB"></rect>

  <!-- Speech bubble -->
  <path d="M60 70
           H196
           A16 16 0 0 1 212 86
           V126
           A16 16 0 0 1 196 142
           H120
           L88 170
           V142
           H60
           A16 16 0 0 1 44 126
           V86
           A16 16 0 0 1 60 70Z" fill="white"></path>

  <!-- EN text -->
  <text x="128" y="122" text-anchor="middle" font-family="Arial, sans-serif" font-size="54" font-weight="700" fill="#2563EB">
    EN
  </text>

  <!-- Small book -->
  <path d="M70 190
           Q100 175 128 190
           Q156 175 186 190
           V220
           Q156 205 128 220
           Q100 205 70 220Z" fill="white"></path>
</svg>