<?xml version="1.0" encoding="utf-8"?>
<!-- Svg Vector Icons : http://www.onlinewebfonts.com/icon -->
<!DOCTYPE svg PUBLIC "-//W3C//DTD SVG 1.1//EN" "http://www.w3.org/Graphics/SVG/1.1/DTD/svg11.dtd">
<svg version="1.1" xmlns="http://www.w3.org/2000/svg" xmlns:xlink="http://www.w3.org/1999/xlink" x="0px" y="0px" viewBox="0 0 256 256" enable-background="new 0 0 256 256" xml:space="preserve">
<metadata> Svg Vector Icons : http://www.onlinewebfonts.com/icon </metadata>
<g> <path fill="#000000" d="M244.6,109.5l-1.2-5.1H131.5v47.4h66.9c-6.9,33-39.2,50.3-65.5,50.3c-19.1,0-39.3-8-52.7-21 c-13.7-13.3-22.4-32.9-22.4-53.1c0-20,9-39.9,22-53c13-13.1,32.7-20.5,52.3-20.5c22.4,0,38.5,11.9,44.5,17.4l33.7-33.5 c-9.9-8.7-37-30.5-79.3-30.5C98.4,7.7,67.1,20.2,44.2,43C21.7,65.4,10,97.9,10,128c0,30.1,11,61,32.9,83.6 c23.4,24.1,56.5,36.7,90.5,36.7c31,0,60.4-12.1,81.3-34.2c20.6-21.7,31.2-51.7,31.2-83.2C246,117.7,244.7,109.8,244.6,109.5z"/></g>
</svg>